<svg id="Layer_1" xmlns="http://www.w3.org/2000/svg" viewBox="0 0 100 100"><style>.st0{fill:#fff}</style><path class="st0" d="M73 61.5V49.9h11.6v-7.3H73V31h-7.3v11.6H54.1v7.3h11.6v11.6z"/><path class="st0" d="M54.8 66.5c0-6.8-4.6-10.9-8-13.8-2.1-1.8-3.8-3.4-3.8-4.9 0-1.6 1.3-2.7 2.9-4.2 2.7-2.4 5.2-5.8 5.2-12.2 0-5.6-.7-9.4-5.2-11.8.5-.2 2.1-.4 3-.5 2.4-.3 6-.7 6-2.7V16H37c-.2 0-18 .7-18 16.9 0 5.8 1.9 9.9 5.7 12.4 3.1 2 6.7 2.3 8.6 2.3h1.1s-.6 3.9 2.3 7.7h-.1c-5 0-21.2 1-21.2 14.4C15.4 83.3 30.3 84 33.3 84h1c1.9 0 6.9-.3 11.5-2.5 6-2.9 9-7.9 9-15zM36.5 43.2c-3.8 0-7.7-3.9-9.1-9.2-.8-3-.7-5.6.2-8.2.9-2.5 2.5-4.2 4.5-4.7.5-.1 1-.2 1.5-.2 4.6 0 7.6 1.9 9.5 8.4 1.7 6.1-.9 12.5-5.1 13.7-.5.1-1 .2-1.5.2zm-.1 34.5c-7.1.5-12.9-2.7-13.3-8.1-.2-2.6 1-5.2 3.2-7.2 2.3-2.1 5.4-3.3 8.8-3.6h1.2c6.6 0 11 3.9 11.3 9 .5 5.4-4.2 9.4-11.2 9.9z"/></svg>