<svg id="Filled" xmlns="http://www.w3.org/2000/svg" viewBox="0 0 100 100"><style>.st0{fill:#fff}</style><path class="st0" d="M25.2 81h49.6c3.4 0 6.2-2.8 6.2-6.2V41.1H63.8c.9 2 1.5 4.2 1.5 6.5 0 8.4-6.8 15.2-15.2 15.2S34.9 56 34.9 47.6c0-2.3.5-4.5 1.5-6.5H19v33.7c0 3.4 2.8 6.2 6.2 6.2z"/><path class="st0" d="M50.1 60.9c7.3 0 13.3-5.9 13.3-13.3 0-7.3-5.9-13.3-13.3-13.3-7.3 0-13.3 5.9-13.3 13.3 0 7.3 6 13.3 13.3 13.3zm0-24.3c6.1 0 11 4.9 11 11s-4.9 11-11 11-11-4.9-11-11 4.9-11 11-11z"/><path class="st0" d="M74.8 19H25.2c-3.4 0-6.2 2.8-6.2 6.2v13.2h19c2.8-3.7 7.2-6 12.1-6s9.4 2.4 12.1 6H81V25.2c0-3.4-2.8-6.2-6.2-6.2zM23.4 36.6H21v-9.5c0-3.5 2.4-4 2.4-4v13.5zm3.8 0h-2.4V23.1h2.4v13.5zm3.9 0h-2.4V23.1h2.4v13.5zm3.8 0h-2.4V23.1h2.4v13.5zm42.8-5.7c0 2.6-2.1 4.7-4.7 4.7h-4.8c-2.6 0-4.7-2.1-4.7-4.7v-3.1c0-2.6 2.1-4.7 4.7-4.7H73c2.6 0 4.7 2.1 4.7 4.7v3.1z"/></svg>