<svg xmlns="http://www.w3.org/2000/svg" viewBox="0 0 100 100"><path d="M83.3 22.4c-2.8 1.7-5.9 2.9-9.2 3.5-2.6-2.8-6.4-4.6-10.6-4.6-8 0-14.5 6.5-14.5 14.4 0 1.1.1 2.2.4 3.3-12-.6-22.7-6.4-29.8-15.1-1.3 2.1-2 4.6-2 7.3 0 5 2.6 9.4 6.4 12-2.4-.1-4.6-.7-6.5-1.8v.2c0 7 5 12.8 11.6 14.2-1.2.3-2.5.5-3.8.5-.9 0-1.8-.1-2.7-.2 1.8 5.7 7.2 9.9 13.5 10-4.9 3.9-11.2 6.2-18 6.2-1.2 0-2.3-.1-3.4-.2 6.4 4.1 14 6.5 22.2 6.5 26.6 0 41.1-22 41.1-41.1v-1.9c2.8-2 5.3-4.6 7.2-7.5-2.6 1.1-5.4 1.9-8.3 2.3 3-1.8 5.3-4.6 6.4-8z" fill="#fff"/></svg>