<svg id="Filled" xmlns="http://www.w3.org/2000/svg" viewBox="0 0 100 100"><style>.st0{fill:#fff}</style><path class="st0" d="M31.6 20.8h-.4L27.5 5.9h-5.9l6.9 22.5v14.9h5.8V27.7L41 5.9h-5.8zm42.3 27.7c-7.8-.3-15.8-.5-23.9-.5s-16.1.1-23.9.4c-5.5 0-9.9 4.4-9.9 9.8-.3 4.3-.5 8.5-.5 12.8s.1 8.5.5 12.8c0 5.4 4.4 9.8 9.9 9.8 7.8.3 15.8.5 23.9.5s16.1-.1 23.9-.5c5.5 0 9.9-4.4 9.9-9.8.3-4.3.5-8.5.5-12.8s-.1-8.5-.5-12.8c0-5.3-4.5-9.7-9.9-9.7zm-43.3 37v.3h-4.7V59.9h-4.8v-4.7h14.4v4.7h-4.8l-.1 25.6zm16.6-22v22.3H43v-2.4c-.8.9-1.6 1.6-2.4 2.1-.8.5-1.6.7-2.4.7-1 0-1.7-.3-2.2-1s-.7-1.7-.7-3v-19h4.2v17.1c0 .5.1.9.3 1.1s.4.4.8.4c.3 0 .7-.1 1.2-.5.5-.3.9-.7 1.3-1.2V63.2h4.2l-.1.3zm16 5.3v12.4c0 1.6-.3 2.8-1 3.6-.7.9-1.6 1.3-2.8 1.3-.8 0-1.5-.2-2.2-.5-.6-.3-1.2-.8-1.8-1.5v1.7h-4.2V55.2h4.2v9.7c.6-.7 1.2-1.2 1.8-1.6.6-.4 1.3-.5 1.9-.5 1.3 0 2.3.5 3 1.4.7 1 1 2.3 1 4.2l.1.4zm15.4.7v5.7h-7.9V79c0 1.2.1 2 .4 2.4.3.5.7.7 1.4.7s1.2-.2 1.4-.6c.3-.4.4-1.2.4-2.6v-1.5h4.3v2c0 2.3-.5 4-1.6 5.2-1 1.2-2.6 1.7-4.7 1.7-1.9 0-3.3-.6-4.4-1.8-1.1-1.2-1.6-2.9-1.6-5.1V69.1c0-1.9.6-3.5 1.8-4.7 1.2-1.2 2.7-1.8 4.6-1.8s3.4.6 4.4 1.7c1 1.1 1.5 2.8 1.5 4.9v.3z"/><path class="st0" d="M57.2 66.7c-.3 0-.6.1-.9.2-.3.1-.6.4-.9.7v13.6c.3.4.7.6 1 .8.3.2.6.2 1 .2.5 0 .9-.1 1.1-.5.2-.3.4-.8.4-1.5V69c0-.8-.1-1.3-.5-1.7-.2-.4-.6-.6-1.2-.6zm15.3.1c-.7 0-1.1.2-1.4.6s-.4 1.1-.4 2v1.9h3.7v-1.9c0-.9-.2-1.6-.4-2-.4-.4-.9-.6-1.5-.6zM42.8 41.9c1.3 1.4 3.1 2.1 5.4 2.1 2.3 0 4.2-.7 5.5-2 1.3-1.4 2-3.2 2-5.6V22.1c0-2.1-.7-3.8-2-5.2-1.3-1.3-3.1-2-5.2-2-2.3 0-4.2.6-5.6 1.9-1.4 1.3-2.1 3-2.1 5.1v14.3c0 2.4.6 4.3 2 5.7zM46 21.8c0-.6.2-1.1.6-1.5.4-.4.9-.6 1.5-.6.7 0 1.2.2 1.7.6.4.4.6.9.6 1.5v15c0 .8-.2 1.3-.6 1.8-.4.4-1 .6-1.7.6s-1.2-.2-1.6-.6c-.4-.4-.5-1-.5-1.8v-15zm14-6.1v23.1c0 1.6.3 2.9.9 3.7.6.8 1.5 1.2 2.7 1.2 1 0 2-.3 3-.9 1-.6 2-1.4 3-2.6v3h5.1V15.7h-5.1v21c-.5.6-1 1.1-1.6 1.5s-1 .6-1.4.6c-.5 0-.8-.2-1-.4-.2-.3-.3-.8-.3-1.4V15.7H60z"/></svg>