<svg version="1.1" xmlns="http://www.w3.org/2000/svg" xmlns:xlink="http://www.w3.org/1999/xlink" preserveAspectRatio="xMidYMid meet" viewBox="342 217 567 89"><g data-item-type="text" data-item="Business" id="logo__item--business" class="logo__item">
            <g data-item-type="image" data-item="Image" data-logo-item="" id="logo__item--logo_0" class="logo__item">
    <g class="logo__item__inner" transform="translate(337.6130357614961 211.5) scale(1.0166709545934254 1.0166709545934254) rotate(0 0 0)">
        
<g>
	<g>
		<g>
			<polygon fill="#26a90f" points="15.913,18.126 46.504,18.195 44.319,24.902 13.766,24.818" data-part-id="logo__item--logo_0__0"></polygon>
		</g>
		<g>
			<path fill="#377FC1" d="M86.946,48.45c0.183,0.145,0.556,0.435,0.739,0.587c0.807,1.994,1.393,4.08,2.041,6.144     c-8.162,5.991-16.331,11.977-24.585,17.831c-0.198-0.442-0.609-1.34-0.823-1.79c-0.691-1.606-1.248-3.259-1.812-4.903     C70.607,60.305,78.807,54.411,86.946,48.45z" data-part-id="logo__item--logo_0__1"></path>
		</g>
		<g>
			<path fill="#e61515" d="M28.285,73.696c0,0,4.72-3.586,6.259-4.751c7.354,4.828,24.902,18.25,24.902,18.25l-5.922,3.875     C45.75,85.771,28.285,73.696,28.285,73.696z" data-part-id="logo__item--logo_0__2"></path>
		</g>
		<g>
			<path fill="#09090a" d="M17.504,39.025l6.053,4.377c0,0-6.296,19.536-9.524,29.266c-1.933-1.462-3.92-2.862-5.946-4.194     C11.048,58.6,17.504,39.025,17.504,39.025z" data-part-id="logo__item--logo_0__3"></path>
		</g>
		<g>
			<path fill="#1D3868" d="M59.272,9.614c2.366,0.03,4.735,0.03,7.108,0.016c2.566,7.644,10.211,29.006,10.211,29.006l-7.179-0.015     C69.413,38.622,61.738,19.444,59.272,9.614z" data-part-id="logo__item--logo_0__4"></path>
		</g>
	</g>
	<g>
		<g>
			<path fill="#1D3868" d="M44.167,9.645c2.375-0.015,4.765-0.03,7.141-0.091c3.221,9.775,9.433,29.403,9.433,29.403l-6.737,0.053     C54.003,39.01,44.928,12.485,44.167,9.645z" data-part-id="logo__item--logo_0__5"></path>
		</g>
		<g>
			<path fill="#26a90f" d="M11.162,32.219c10.286-0.526,20.602-0.152,30.903-0.206c-0.716,2.284-1.439,4.576-2.101,6.875     c-7.211,0.19-14.413-0.023-21.615,0.137c-0.213,0-0.632,0-0.845,0c-2.81-0.046-5.626-0.077-8.443,0.015     C9.815,36.779,10.516,34.502,11.162,32.219z" data-part-id="logo__item--logo_0__6"></path>
		</g>
		<g>
			<path fill="#c51e1e" d="M41.083,64.203c0,0,3.799-2.696,5.703-4.043c5.916,4.226,22.604,16.46,24.888,18.044     c-1.972,1.461-3.952,2.893-5.961,4.285C57.603,76.271,41.083,64.203,41.083,64.203z" data-part-id="logo__item--logo_0__7"></path>
		</g>
		<g>
			<path fill="#1e1a1a" d="M29.815,48.016c1.979,1.279,3.875,2.666,5.733,4.096c-2.208,6.905-9.7,28.71-9.7,28.71     s-3.746-2.299-5.565-3.517C23.26,67.484,26.534,57.738,29.815,48.016z" data-part-id="logo__item--logo_0__8"></path>
		</g>
		<g>
			<path fill="#3575C0" d="M82.696,34.054l2.33,7.042c0,0-16.49,11.983-24.887,17.769c-0.739-2.253-1.454-4.529-2.132-6.799     C64,47.705,82.696,34.054,82.696,34.054z" data-part-id="logo__item--logo_0__9"></path>
		</g>
	</g>
</g>

    </g>
</g></svg>